<svg width="14" height="13" viewBox="0 0 14 13" fill="none" xmlns="http://www.w3.org/2000/svg">
<rect x="5.19995" y="6.06665" width="3.46667" height="6.93333" rx="1.5" fill="#798B8F"/>
<path d="M7.70433 9.50543C7.30423 10.0354 6.50827 10.0354 6.10817 9.50543L2.13518 4.24317C1.63777 3.58435 2.10775 2.64063 2.93326 2.64063L10.8792 2.64063C11.7048 2.64063 12.1747 3.58435 11.6773 4.24317L7.70433 9.50543Z" fill="#6A797C"/>
<path fill-rule="evenodd" clip-rule="evenodd" d="M6.9375 13V6.06665H7.16662C7.99505 6.06665 8.66662 6.73822 8.66662 7.56665V11.5C8.66662 12.3284 7.99505 13 7.16662 13H6.9375Z" fill="#718285"/>
<path d="M7.70433 9.50543C7.30423 10.0354 6.50827 10.0354 6.10817 9.50543L2.13518 4.24317C1.63777 3.58435 2.10775 2.64063 2.93326 2.64063L10.8792 2.64063C11.7048 2.64063 12.1747 3.58435 11.6773 4.24317L7.70433 9.50543Z" fill="#6A797C"/>
<path fill-rule="evenodd" clip-rule="evenodd" d="M8.12942 8.94248L6.49292 8.03954L9.4718 2.64062H10.8793C11.7048 2.64062 12.1748 3.58434 11.6774 4.24317L8.12942 8.94248Z" fill="#617376" fill-opacity="0.7"/>
<path fill-rule="evenodd" clip-rule="evenodd" d="M7.70391 9.50635C7.30381 10.0363 6.50785 10.0363 6.10775 9.50635L5.2356 8.35118L6.31581 7.49364C6.67992 7.20459 7.19521 7.20459 7.55932 7.49365L8.59985 8.31967L7.70391 9.50635Z" fill="#949FA1"/>
<path fill-rule="evenodd" clip-rule="evenodd" d="M7.70391 9.50635C7.30381 10.0363 6.50785 10.0363 6.10775 9.50635L5.2356 8.35118L6.31581 7.49364C6.67992 7.20459 7.19521 7.20459 7.55932 7.49365L8.59985 8.31967L7.70391 9.50635Z" fill="#949FA1"/>
<path fill-rule="evenodd" clip-rule="evenodd" d="M7.70391 9.50635C7.30381 10.0363 6.50785 10.0363 6.10775 9.50635L5.2356 8.35118L6.31581 7.49364C6.67992 7.20459 7.19521 7.20459 7.55932 7.49365L8.59985 8.31967L7.70391 9.50635Z" fill="#798B8F"/>
<path fill-rule="evenodd" clip-rule="evenodd" d="M6.9375 9.90331V7.27686C7.15737 7.27684 7.37725 7.3491 7.55932 7.49365L8.59985 8.31967L7.70391 9.50635C7.51092 9.76196 7.22584 9.89428 6.9375 9.90331Z" fill="#718285"/>
</svg>
