<svg xmlns="http://www.w3.org/2000/svg" viewBox="0 0 190 59.39"><title>codeinwp-logo</title><g id="w"><path id="_Compound_Path_" data-name="&lt;Compound Path&gt;" d="M1060.25,526.87a.57.57,0,0,0-.62-.49h-4.29c-.33,0-.49.13-.49.49v1.7a.43.43,0,0,0,.49.49h1.7l3.57,13.06a.57.57,0,0,0,.62.46h2.95a.57.57,0,0,0,.62-.46l3.24-11.59,3.11,11.56a.57.57,0,0,0,.62.49h2.95a.57.57,0,0,0,.62-.46l4.52-14.86a.64.64,0,0,0-.65-.88H1075c-.33,0-.49.13-.49.49v1.7a.43.43,0,0,0,.49.49h1.57l-2.91,9.56-3.34-11.79a.55.55,0,0,0-.62-.46h-2.62a.57.57,0,0,0-.62.46l-3.24,11.72Z" transform="translate(-908.39 -496.28)" style="fill:#305077"/></g><g id="p"><path id="_Compound_Path_2" data-name="&lt;Compound Path&gt;" d="M1083.33,547.53h-1.74c-.33,0-.49.13-.49.49v1.6a.43.43,0,0,0,.49.49h8.87c.33,0,.49-.13.49-.49V548c0-.33-.13-.49-.49-.49H1087V541.6a6.54,6.54,0,0,0,4.26,1.38c3.83,0,7.14-2.49,7.14-9.13,0-5.24-2.49-7.82-6.42-7.82a5.8,5.8,0,0,0-5.14,2.82l-.33-2c-.07-.33-.16-.49-.49-.49h-4.45c-.36,0-.49.13-.49.49v1.7a.43.43,0,0,0,.49.49h1.77Zm3.67-14.9a3.64,3.64,0,0,1,3.86-3.6c3.4,0,3.83,2.65,3.83,5.57,0,4.35-1.64,5.66-4,5.66a5.66,5.66,0,0,1-3.73-1.38Z" transform="translate(-908.39 -496.28)" style="fill:#305077"/></g><g id="i"><path id="_Compound_Path_3" data-name="&lt;Compound Path&gt;" d="M1032.2,540h2.06c.33,0,.49.13.49.49v1.6a.43.43,0,0,1-.49.49h-7.79c-.33,0-.49-.13-.49-.49v-1.6a.43.43,0,0,1,.49-.49h2.06V529.06h-1.77c-.33,0-.49-.13-.49-.49v-1.7a.43.43,0,0,1,.49-.49h4.94c.36,0,.49.16.49.49Zm-4.58-18.2a2.2,2.2,0,0,0,2.32,2.32,2.34,2.34,0,1,0-2.32-2.32Z" transform="translate(-908.39 -496.28)" style="fill:#305077"/></g><g id="n"><path id="_Compound_Path_4" data-name="&lt;Compound Path&gt;" d="M1035.9,528.6c0,.36.13.46.49.46h1.77V540h-1.74c-.33,0-.49.13-.49.49v1.6a.43.43,0,0,0,.49.49h7.43c.33,0,.49-.13.49-.49v-1.6c0-.33-.13-.49-.49-.49h-2v-7.53a3.55,3.55,0,0,1,3.67-3.21c2.59,0,2.82,1.64,2.82,4V540h-1.57c-.33,0-.49.13-.49.49v1.6a.43.43,0,0,0,.49.49h7.14c.33,0,.49-.13.49-.49v-1.6a.43.43,0,0,0-.49-.49H1052v-8.41c0-3.7-1.77-5.57-5.07-5.57a6,6,0,0,0-5.24,2.75l-.29-1.9c-.07-.33-.2-.49-.52-.49h-4.45c-.36,0-.49.16-.49.49Z" transform="translate(-908.39 -496.28)" style="fill:#305077"/></g><g id="c"><path id="_Compound_Path_5" data-name="&lt;Compound Path&gt;" d="M962.5,534.27c0-3.67,1.15-5.5,3.8-5.5,2,0,2.82,1.15,2.91,2.88,0,.43.23.49.56.49h2c.33,0,.56,0,.56-.43,0-3-1.57-5.7-5.76-5.7-5.4,0-7.76,3.83-7.76,8.55,0,4.94,2.23,8.41,7.76,8.41a9.84,9.84,0,0,0,5-1.21.48.48,0,0,0,.26-.69l-.59-1.44a.47.47,0,0,0-.69-.29,7.71,7.71,0,0,1-3.44.88C963.62,540.22,962.5,537.64,962.5,534.27Z" transform="translate(-908.39 -496.28)" style="fill:#305077"/></g><g id="o"><path id="_Compound_Path_6" data-name="&lt;Compound Path&gt;" d="M974.09,534.72c0,5.57,2.78,8.25,7.24,8.25s7.89-2.82,7.89-8.94c0-7.24-4.81-8-7.37-8C978.71,526,974.09,527.82,974.09,534.72Zm7.53,5.57c-3.27,0-3.83-3.37-3.83-6.29,0-3.18,1-5.3,3.77-5.3s3.83,2.13,3.83,5.79S984.3,540.29,981.62,540.29Z" transform="translate(-908.39 -496.28)" style="fill:#305077"/></g><g id="d"><path id="_Compound_Path_7" data-name="&lt;Compound Path&gt;" d="M1006.57,540V518.65c0-.36-.16-.49-.49-.49h-4.91c-.36,0-.49.13-.49.49v1.74a.43.43,0,0,0,.49.49h1.74v7a5.12,5.12,0,0,0-4.19-1.83c-4,0-7.2,2.62-7.2,8.94,0,5.43,2.49,8,6.68,8a5.8,5.8,0,0,0,5.34-2.82l.26,1.93c0,.33.16.49.49.49h3.7c.33,0,.49-.13.49-.49v-1.6a.43.43,0,0,0-.49-.49Zm-3.67-3.57a3.72,3.72,0,0,1-3.83,3.7c-3.44,0-3.86-2.82-3.86-5.73,0-4.13,1.77-5.5,4.06-5.5a4.57,4.57,0,0,1,3.63,1.77Z" transform="translate(-908.39 -496.28)" style="fill:#305077"/></g><g id="e"><path id="_Compound_Path_8" data-name="&lt;Compound Path&gt;" d="M1018.12,543a12,12,0,0,0,5.4-1.18c.29-.16.43-.33.29-.65l-.62-1.51c-.13-.33-.33-.43-.65-.26a8.43,8.43,0,0,1-3.7.85c-3.54,0-4.42-2.16-4.62-4.94h9.63c.49,0,.56-.13.59-.52s0-.82,0-1.11c0-3.54-1.38-7.63-6.38-7.63s-7.5,4.13-7.5,8.45C1010.59,539.44,1012.69,543,1018.12,543Zm-3.9-10.12c.07-1.74.75-4.09,3.6-4.09,2.68,0,3.24,2.13,3.21,4.09Z" transform="translate(-908.39 -496.28)" style="fill:#305077"/></g><g id="cog1"><path id="_Compound_Path_9" data-name="&lt;Compound Path&gt;" d="M949.26,530.93h-3.91a16.43,16.43,0,0,0-2-4.58l3-3a.75.75,0,0,0,0-1.06L942.18,518a.75.75,0,0,0-1.06,0l-3,3a16.4,16.4,0,0,0-5-2.05V514.8a.75.75,0,0,0-.75-.75h-6a.75.75,0,0,0-.75.75V519a16.4,16.4,0,0,0-4.84,2L917.85,518a.75.75,0,0,0-1.06,0l-4.24,4.24a.75.75,0,0,0,0,1.06l2.9,2.9a16.4,16.4,0,0,0-2,4.7h-4.27a.75.75,0,0,0-.75.75v6a.75.75,0,0,0,.75.75h4.1a16.39,16.39,0,0,0,2.14,5.33l-2.64,2.64a.75.75,0,0,0,0,1.06L917,551.7a.75.75,0,0,0,1.06,0l2.64-2.64a16.4,16.4,0,0,0,5,2.05v3.81a.75.75,0,0,0,.75.75h6a.75.75,0,0,0,.75-.75v-3.81a16.4,16.4,0,0,0,5.07-2.13l2.71,2.71a.75.75,0,0,0,1.06,0l4.24-4.24a.75.75,0,0,0,0-1.06l-2.75-2.75a16.4,16.4,0,0,0,2.07-5.22h3.72a.75.75,0,0,0,.75-.75v-6A.75.75,0,0,0,949.26,530.93Zm-19.87,15.95a11.82,11.82,0,1,1,11.82-11.82A11.82,11.82,0,0,1,929.39,546.87Z" transform="translate(-908.39 -496.28)" style="fill:#305077"/></g><g id="cog2"><path id="_Compound_Path_10" data-name="&lt;Compound Path&gt;" d="M955.26,508.64h-1.89a7.91,7.91,0,0,0-.95-2.21l1.47-1.47a.36.36,0,0,0,0-.51l-2.05-2.05a.36.36,0,0,0-.51,0l-1.47,1.47a7.91,7.91,0,0,0-2.39-1v-2a.36.36,0,0,0-.36-.36h-2.9a.36.36,0,0,0-.36.36v2a7.91,7.91,0,0,0-2.33,1l-1.43-1.43a.36.36,0,0,0-.51,0l-2,2a.36.36,0,0,0,0,.51l1.4,1.4a7.92,7.92,0,0,0-1,2.27h-2.07a.36.36,0,0,0-.36.36v2.9a.36.36,0,0,0,.36.36h2a7.91,7.91,0,0,0,1,2.57l-1.28,1.28a.36.36,0,0,0,0,.51l2.05,2.05a.36.36,0,0,0,.51,0l1.28-1.28a7.91,7.91,0,0,0,2.39,1v1.85a.36.36,0,0,0,.36.36h2.9a.36.36,0,0,0,.36-.36v-1.85a7.92,7.92,0,0,0,2.45-1l1.31,1.31a.36.36,0,0,0,.51,0l2-2a.36.36,0,0,0,0-.51l-1.34-1.34a7.91,7.91,0,0,0,1-2.52h1.8a.36.36,0,0,0,.36-.36V509A.36.36,0,0,0,955.26,508.64Zm-9.6,5.45a3.46,3.46,0,1,1,3.46-3.46A3.46,3.46,0,0,1,945.66,514.1Z" transform="translate(-908.39 -496.28)" style="fill:#305077"/></g><g id="cog3"><path id="_Compound_Path_11" data-name="&lt;Compound Path&gt;" d="M937.17,501h-1.1a4.6,4.6,0,0,0-.55-1.28l.85-.85a.21.21,0,0,0,0-.3l-1.19-1.19a.21.21,0,0,0-.3,0l-.85.85a4.6,4.6,0,0,0-1.39-.58v-1.18a.21.21,0,0,0-.21-.21h-1.69a.21.21,0,0,0-.21.21v1.18a4.6,4.6,0,0,0-1.36.56l-.83-.83a.21.21,0,0,0-.3,0l-1.19,1.19a.21.21,0,0,0,0,.3l.82.82a4.6,4.6,0,0,0-.57,1.32H925.9a.21.21,0,0,0-.21.21v1.69a.21.21,0,0,0,.21.21h1.15a4.6,4.6,0,0,0,.6,1.5l-.74.74a.21.21,0,0,0,0,.3l1.19,1.19a.21.21,0,0,0,.3,0l.74-.74a4.6,4.6,0,0,0,1.39.58v1.07a.21.21,0,0,0,.21.21h1.69a.21.21,0,0,0,.21-.21v-1.07a4.6,4.6,0,0,0,1.42-.6l.76.76a.21.21,0,0,0,.3,0l1.19-1.19a.21.21,0,0,0,0-.3l-.78-.78a4.6,4.6,0,0,0,.58-1.46h1a.21.21,0,0,0,.21-.21v-1.69A.21.21,0,0,0,937.17,501Zm-5.58,3.15a2,2,0,1,1,2-2A2,2,0,0,1,931.59,504.17Z" transform="translate(-908.39 -496.28)" style="fill:#305077"/></g><g id="_" data-name="&lt;"><path id="_Compound_Path_12" data-name="&lt;Compound Path&gt;" d="M921.63,535.29a1.2,1.2,0,0,0-.13.51,1.16,1.16,0,0,0,.1.52.74.74,0,0,0,.35.37l3.27,1.72a.94.94,0,0,0,.75.08,1,1,0,0,0,.58-.48.92.92,0,0,0,.07-.75,1,1,0,0,0-.49-.58l-1.62-.85,1.62-.87a1,1,0,0,0,.49-.58.92.92,0,0,0-.07-.75,1,1,0,0,0-.58-.48.94.94,0,0,0-.75.07L922,534.95A.74.74,0,0,0,921.63,535.29Z" transform="translate(-908.39 -496.28)" style="fill:#305077"/></g><g id="_2" data-name="/"><path id="_Compound_Path_13" data-name="&lt;Compound Path&gt;" d="M930,530.82a1,1,0,0,0-.5.6l-2.4,7.56a1,1,0,0,0,.08.79,1,1,0,0,0,.6.49,1,1,0,0,0,.76-.08,1,1,0,0,0,.49-.58l2.4-7.57a1,1,0,0,0-.07-.76,1,1,0,0,0-1.36-.43Z" transform="translate(-908.39 -496.28)" style="fill:#305077"/></g><g id="_3" data-name="&gt;"><path id="_Compound_Path_14" data-name="&lt;Compound Path&gt;" d="M936.92,534.95l-3.27-1.74a.94.94,0,0,0-.75-.07,1,1,0,0,0-.58.48.92.92,0,0,0-.07.75,1,1,0,0,0,.49.58l1.62.87-1.62.85a1,1,0,0,0-.49.58.92.92,0,0,0,.07.75,1,1,0,0,0,.58.48.94.94,0,0,0,.75-.08l3.27-1.72a.74.74,0,0,0,.35-.37,1.16,1.16,0,0,0,.1-.52,1.2,1.2,0,0,0-.13-.51.74.74,0,0,0-.33-.34Z" transform="translate(-908.39 -496.28)" style="fill:#305077"/></g></svg>